<?xml version="1.0" encoding="UTF-8"?>
<svg id="Livello_2" data-name="Livello 2" xmlns="http://www.w3.org/2000/svg" viewBox="0 0 19.51 24.38">
  <defs>
    <style>
      .cls-1 {
        fill: #808080;
      }
    </style>
  </defs>
  <g id="svg1">
    <g id="g4">
      <path id="path1-9" class="cls-1" d="M1.8,24.38v-2.44h6.73v-4.88h-2.44c-1.69,0-3.12-.59-4.31-1.78s-1.78-2.63-1.78-4.31c0-1.22.34-2.34,1.01-3.37s1.57-1.77,2.71-2.24c.18-1.52.85-2.8,2-3.83s2.49-1.54,4.04-1.54,2.89.51,4.04,1.54,1.81,2.3,2,3.83c1.14.47,2.04,1.21,2.71,2.24s1.01,2.15,1.01,3.37c0,1.69-.59,3.12-1.78,4.31s-2.63,1.78-4.31,1.78h-2.44v4.88h7.21v2.44H1.8ZM6.1,14.63h7.31c1.02,0,1.88-.36,2.59-1.07s1.07-1.57,1.07-2.59c0-.73-.21-1.4-.62-2.01s-.96-1.06-1.63-1.34l-1.28-.55-.18-1.4c-.12-.91-.52-1.68-1.2-2.3s-1.48-.93-2.39-.93-1.71.31-2.39.93-1.08,1.39-1.2,2.3l-.18,1.4-1.28.55c-.67.28-1.21.73-1.63,1.34-.42.61-.62,1.28-.62,2.01,0,1.02.36,1.88,1.07,2.59.71.71,1.57,1.07,2.59,1.07Z"/>
    </g>
  </g>
</svg>