<svg xmlns="http://www.w3.org/2000/svg" id="Livello_2" data-name="Livello 2" viewBox="0 0 24.38 24.38">
  <defs fill="#000000">
    <style>
      .cls-1 {
        fill: #f44336;
      }
    </style>
  </defs>
  <g id="svg1">
    <g id="g3">
      <path id="path1-3" class="cls-1" d="M0,24.38v-2.44c.77,0,1.35-.2,1.72-.61.38-.41,1.16-.61,2.36-.61s1.98.2,2.35.61.93.61,1.71.61,1.34-.2,1.71-.61,1.15-.61,2.35-.61,1.95.2,2.36.61.99.61,1.72.61c.77,0,1.34-.2,1.71-.61s1.15-.61,2.35-.61,1.98.2,2.35.61.93.61,1.71.61v2.44c-1.18,0-1.96-.2-2.35-.61s-.95-.61-1.71-.61-1.32.2-1.71.61-1.17.61-2.35.61-1.97-.2-2.36-.61-.97-.61-1.72-.61-1.34.2-1.71.61-1.15.61-2.35.61-1.98-.2-2.35-.61-.93-.61-1.71-.61-1.32.2-1.71.61-1.18.61-2.38.61ZM8.14,18.9c-1.16,0-1.94-.2-2.35-.61s-.98-.61-1.71-.61-1.28.2-1.71.61-1.22.61-2.38.61v-2.44c.77,0,1.34-.2,1.71-.61s1.15-.61,2.35-.61c.12,0,.24,0,.37.02s.23.03.34.05l-1.16-4.27-1.68,2.19-1.92-1.52L9.48,0l14.05,5.36-.88,2.29-2.56-1.04,2.47,9.17c.28.16.56.31.84.46s.6.21.99.21v2.44c-1.16-.02-1.94-.23-2.35-.62s-.98-.59-1.71-.59c-.77,0-1.34.2-1.71.61s-1.15.61-2.35.61-1.95-.2-2.36-.61-.99-.61-1.72-.61c-.77,0-1.34.2-1.71.61s-1.15.61-2.35.61ZM8.14,16.46c.61,0,1.08-.14,1.42-.43s.85-.51,1.54-.67l-1.13-4.15,4.72-1.25,1.71,6.46c.63-.04,1.13-.23,1.49-.56s1.03-.53,1.98-.59l-2.62-9.78-6.98-2.56-4.79,5.73,2.1,7.74c.08.02.17.04.26.05s.19.02.29.02Z" fill="#000000"/>
    </g>
  </g>
</svg>