<svg xmlns="http://www.w3.org/2000/svg" id="Livello_2" data-name="Livello 2" viewBox="0 0 36.56 36.58">
  <defs fill="#ffffff">
    <style>
      .cls-1 {
        fill: #f44336;
      }
    </style>
  </defs>
  <g id="svg1">
    <g>
      <path class="cls-1" d="M18.28,16.55c-.72,0-1.34.25-1.85.76-.5.51-.76,1.12-.76,1.85s.26,1.34.76,1.85c.51.51,1.13.76,1.85.76s1.34-.25,1.85-.76c.5-.51.76-1.12.76-1.85s-.26-1.34-.76-1.85c-.51-.51-1.13-.76-1.85-.76Z" fill="#ffffff"/>
      <path class="cls-1" d="M29.59,19.55v-5.62l-9.57-4.35v-2.61h3.48v-3.49h-3.48V0h-3.48v3.48h-3.48v3.49h3.48v2.61l-9.57,4.35v5.62l-6.97,3.09v13.94h16.54v-6.97c0-.49.17-.91.5-1.24.34-.34.75-.5,1.24-.5s.9.16,1.24.5c.33.33.5.75.5,1.24v6.97h16.54v-13.94l-6.97-3.09ZM33.08,33.09h-9.58v-3.57c0-1.48-.51-2.73-1.52-3.76-1.02-1.03-2.25-1.55-3.7-1.55s-2.68.52-3.7,1.55c-1.01,1.03-1.52,2.28-1.52,3.76v3.57H3.48v-8.36l6.97-3.13v-5.84l7.83-3.57,7.83,3.57v5.84l6.97,3.13v8.36Z" fill="#ffffff"/>
    </g>
  </g>
</svg>