<?xml version="1.0" encoding="UTF-8" standalone="no"?>
<!-- Created for MapSVG plugin: http://mapsvg.com -->

<svg
   mapsvg:geoViewBox="6.624486 47.092916 18.521301 35.490303"
   width="610.30981"
   height="792.58575"
   version="1.1"
   id="svg1"
   sodipodi:docname="italy.svg"
   inkscape:version="1.3.2 (091e20e, 2023-11-25, custom)"
   xmlns:inkscape="http://www.inkscape.org/namespaces/inkscape"
   xmlns:sodipodi="http://sodipodi.sourceforge.net/DTD/sodipodi-0.dtd"
   xmlns="http://www.w3.org/2000/svg"
   xmlns:svg="http://www.w3.org/2000/svg"
   xmlns:mapsvg="http://mapsvg.com">
  <defs
     id="defs1" />
  <sodipodi:namedview
     id="namedview1"
     pagecolor="#ffffff"
     bordercolor="#000000"
     borderopacity="0.25"
     inkscape:showpageshadow="2"
     inkscape:pageopacity="0.0"
     inkscape:pagecheckerboard="0"
     inkscape:deskcolor="#d1d1d1"
     inkscape:zoom="1.0257565"
     inkscape:cx="305.62809"
     inkscape:cy="396.29288"
     inkscape:window-width="1920"
     inkscape:window-height="1009"
     inkscape:window-x="1912"
     inkscape:window-y="-8"
     inkscape:window-maximized="1"
     inkscape:current-layer="svg1" />
  <path
     d="m 299.30021,372.14051 -0.11,-0.11 -0.1,0.03 -0.17,0.04 -0.16,0.26 -0.03,0.06 0.06,0.08 0.06,-0.02 0.26,0.06 0.2,-0.08 0.02,-0.06 -0.04,-0.08 z"
     title="Vatican City"
     id="VA" />
  <path
     d="m 156.71797,705.43258 2.67128,4.66257 10.97647,-3.15696 10.29652,17.33897 -5.5368,27.29551 -7.57669,4.3226 -13.59919,-25.98416 -2.71984,-13.84204 z m -15.49334,-22.00156 -0.63141,26.51843 -7.86809,1.84559 -6.55676,-4.61399 0.24284,-8.20811 -7.47956,-4.41971 11.85072,-10.87936 z m 354.55023,-562.56923 2.67127,2.47698 -12.09357,7.72239 -2.57413,-1.9913 13.40492,-11.02505 z m -374.56047,-18.89316 -2.71984,2.7684 -0.29142,-4.856844 z m 23.36145,-46.868631 1.31136,5.488248 6.02249,4.031179 -3.5455,3.594073 -0.82565,9.519438 -13.25923,-6.168194 -10.58794,14.716243 3.20552,-0.9228 3.98263,7.86811 -2.28272,6.65389 -11.17076,-1.40851 4.80827,-11.99641 -3.05981,-0.43712 0.77709,-5.439665 7.18816,-3.011261 4.22547,-7.770946 4.66256,-0.534251 -2.6227,-9.470866 z m 286.74856,-40.457582 4.17691,7.430994 -6.02249,10.102235 4.17687,1.117084 -11.17074,1.699893 5.29397,-20.981602 z m -32.6866,-3.156955 4.71115,2.96266 -5.14825,4.565443 z m -27.53836,-2.2341543 12.23928,10.0536753 -3.64266,9.130899 5.14829,5.391097 11.89928,-0.825654 1.31134,-6.216775 6.07109,-0.67997 2.62269,8.839482 2.76841,0.728506 9.61656,0.09724 -4.75972,6.168234 6.11964,1.068491 4.37116,6.702466 -0.82567,14.182005 7.23673,-10.976477 -1.35993,-5.585393 12.09357,0.679957 1.50562,-5.585382 4.46832,6.02251 -2.71984,1.602742 4.75971,0.291423 -1.31136,5.97393 6.45962,-0.291401 1.26279,5.439687 -4.85685,7.382412 -2.67129,-3.25411 -1.89416,1.797052 1.40847,6.993868 -4.03118,2.52556 -3.73979,14.473404 3.73979,-0.19427 0.82565,-6.55674 8.54807,-2.57413 -2.57412,10.9279 6.41106,0.29142 -0.19428,-3.98262 2.23414,1.45706 2.37986,-3.83692 17.24183,8.88804 -3.3998,3.59408 -10.53938,-5.3911 -6.70244,5.77964 2.81697,5.051144 -6.26534,8.40235 1.60274,4.51688 -13.21062,-1.94274 -4.41973,1.99129 4.37116,2.28274 10.29654,0.24284 4.17689,1.69991 -1.8456,1.9913 4.71114,5.53679 7.18814,-9.95653 6.11963,1.16565 -7.18814,9.13087 10.87935,5.3911 -2.57413,6.60532 8.11093,-1.79703 10.19939,7.04244 -3.54549,2.71983 -4.85686,-1.74846 -1.9913,4.71115 2.76839,3.73976 -4.27403,2.23414 -0.67995,6.11965 11.46217,11.36504 -0.7771,13.21064 9.71371,12.19071 -2.96267,12.43352 3.10838,12.38499 8.93661,8.35379 1.35993,8.7909 8.06237,5.05113 -15.25052,44.53733 -19.136,16.31902 -15.73621,26.90698 v 16.659 l 6.65389,19.67024 9.81083,13.1621 10.00513,5.82821 -0.0973,8.06239 -11.51074,28.26685 0.7771,10.29654 5.97391,1.50563 1.01995,3.64263 -8.88805,8.98518 3.59408,15.39622 -6.65388,22.68149 2.18557,22.63296 -7.96525,19.57309 2.57416,26.76128 -6.07108,21.5644 3.49692,13.01637 -11.99641,36.42641 1.50565,10.24794 7.18811,5.87682 -7.57668,2.52556 -5.19684,7.96524 -4.85684,22.48721 4.12832,6.21677 -5.24538,14.47343 h -4.95401 l -4.4683,5.48825 0.63139,6.31388 -4.85686,-4.07974 v -7.04243 l -4.61401,-1.74846 -11.75356,3.98262 -35.16364,-28.99542 -21.56443,-4.51688 -10.34509,6.26535 -2.33129,8.30522 -12.43354,-10.00513 -10.34508,4.56545 -12.33642,15.34765 -0.24284,20.15593 7.13957,9.95657 -6.07108,22.97291 -2.67125,-2.67128 -3.54552,1.79704 -34.43507,34.67794 -6.11964,-0.24287 -4.85686,-6.36245 -3.15694,4.12831 -6.21677,-9.90799 -13.50205,-7.72238 -0.82565,5.05113 -13.40493,3.30267 1.40848,5.05113 -5.29395,2.67126 2.42841,6.45962 -4.17689,1.40847 1.40848,-9.76225 -9.95654,0.53423 3.54549,-16.02762 -12.3364,-11.21931 -2.08844,-20.6902 -8.06237,-4.66258 -14.18201,-0.29141 2.23414,-8.98518 -3.44836,-7.52813 -3.10839,-2.91411 -5.34254,2.86555 -0.19426,-14.13345 -16.90184,-18.11605 -0.48571,-4.75972 14.522,-13.59919 2.57413,-6.70245 -3.73978,-13.16208 -6.70245,-2.37985 -0.97138,-8.30522 -3.98262,-3.30265 9.61656,-15.20194 -0.24283,-5.73109 -7.23671,-4.75972 1.01995,-4.85685 16.56185,-24.47855 4.41974,-17.87322 -5.34253,-10.44223 2.13701,-9.81084 -3.01124,-5.48826 2.47698,-7.77095 -2.42841,-16.17332 3.30265,-4.07976 8.64521,14.91055 3.78833,-0.29141 1.65132,-10.0537 7.86812,-13.40491 1.94273,-20.78732 -7.38241,-13.45348 -11.705,-0.72854 -9.2766,9.51944 -10.6365,-10.0537 -1.21422,-21.80727 5.00256,-14.32769 -8.83947,-5.14827 6.3139,-5.24541 2.42843,3.39981 10.39367,-3.20553 8.9366,-9.51943 0.38856,-7.33387 -8.59665,-23.89572 6.45963,-35.64927 -5.73107,-10.97649 -9.61658,-5.58541 -9.47087,-0.53423 -0.87424,-6.99386 5.53682,-16.31903 -6.94529,-26.12988 -8.7909,-3.10838 -9.4223,-29.33539 -13.16208,2.62271 -0.67997,4.46831 -9.90798,0.24282 -0.097,-8.54805 3.64266,-2.52556 -5.29398,-5.53681 -8.7909,13.84204 -2.71984,-0.87424 -1.40849,-14.52201 9.95655,-4.56544 5.2454,-15.44478 -7.57669,-3.2541 -10.490797,-11.94784 8.499487,-11.4136 -1.35992,-9.42231 6.60532,-5.73108 8.93661,-24.57569 -11.65645,-16.22186 6.7996,-11.65646 8.35378,6.02251 -1.21421,13.8906 20.05881,21.51586 14.81338,2.96266 11.07362,-1.8456 9.42231,6.89672 26.42128,-3.88547 33.1723,-26.80981 24.33282,-3.59407 20.10738,-22.875804 -0.53425,-6.36246 14.95912,-8.985172 19.96166,-27.101235 8.01378,-4.322616 3.15697,3.545504 12.57925,-2.428429 2.96269,-6.751028 8.15952,-0.339984 3.98262,-4.468298 -3.69122,-9.276608 3.25408,-10.587923 -6.26534,-1.06851 0.72852,-4.565443 5.09972,3.44836 6.99387,-3.739765 0.29141,4.468297 z m 47.01434,-3.205528 7.091,11.4621883 -2.08844,5.585366 -14.37629,2.234154 -2.18557,-6.119627 7.18815,-5.439684 -0.63141,-5.3425353 3.35122,3.5940693 z"
     title="Sardegna"
     id="IT-88"
     style="stroke-width:4.85686;fill:#00691e;fill-opacity:1" />
</svg>
